<svg width="16" height="16" viewBox="0 0 16 16" fill="none" xmlns="http://www.w3.org/2000/svg">
<g clip-path="url(#clip0_18_41039)">
<path d="M5.73372 15.5999L1.40039 3.2666" stroke="white" stroke-width="2" stroke-miterlimit="10" stroke-linejoin="round"/>
<path d="M15.3327 0.0664062L14.3327 0.933073C14.3327 0.933073 12.866 2.13307 11.3993 2.13307C10.7327 2.13307 10.1993 1.86641 9.53268 1.59974C8.79935 1.26641 7.93268 0.79974 6.66602 0.79974C3.06602 0.79974 0.999349 2.99974 0.866016 3.13307L0.666016 3.33307L4.13268 13.0664L4.86602 12.3331C4.86602 12.3331 6.46602 10.7331 8.06602 10.7331C9.06602 10.7331 9.66602 10.9331 10.1993 11.0664C10.7327 11.1997 11.266 11.3997 12.066 11.3997C13.666 11.3997 14.9993 10.6664 15.066 10.6664L15.3993 10.4664L15.3327 0.0664062ZM14.066 9.66641C13.666 9.86641 12.866 10.1331 11.9993 10.1331C11.3993 10.1331 10.9993 9.99974 10.466 9.86641C9.79935 9.66641 9.13268 9.46641 7.93268 9.46641C6.59935 9.46641 5.33268 10.2664 4.59935 10.7997L2.13268 3.66641C2.73268 3.13307 4.33268 1.99974 6.73268 1.99974C7.66602 1.99974 8.33268 2.33307 9.06602 2.66641C9.79935 2.99974 10.466 3.33307 11.466 3.33307C12.466 3.33307 13.466 2.93307 14.1327 2.53307V9.66641H14.066Z" fill="white"/>
<path d="M1.40039 3.46693C1.40039 3.46693 2.40039 2.40026 3.80039 1.93359L4.86706 4.60026C4.86706 4.60026 3.53372 5.06693 2.40039 6.13359L1.40039 3.60026V3.46693ZM4.80039 4.66693L5.93372 7.53359C5.93372 7.53359 6.80039 7.20026 7.40039 7.20026C8.00039 7.20026 8.60039 7.26693 8.60039 7.26693L7.80039 4.20026C7.80039 4.20026 7.60039 4.20026 7.26706 4.20026C5.93372 4.20026 4.80039 4.66693 4.80039 4.66693ZM3.46706 9.20026L4.40039 11.8669C4.40039 11.8669 5.73372 10.6003 6.93372 10.2669L5.86706 7.53359C4.73372 8.00026 3.46706 9.20026 3.46706 9.20026Z" fill="white"/>
<path d="M7.06641 1.40039L7.79974 4.20039C8.39974 4.20039 10.0664 5.00039 10.0664 5.00039L9.39974 2.06706C9.06641 2.00039 8.06641 1.46706 7.06641 1.40039ZM8.59974 7.33372L9.39974 10.2671C9.79974 10.2671 10.9331 10.7337 11.3997 10.7337L10.7331 7.86706C10.0664 7.66706 9.06641 7.33372 8.59974 7.33372ZM10.0664 5.06706L10.6664 7.80039C10.6664 7.80039 11.2664 7.93372 11.7331 7.93372C12.1997 7.93372 12.7331 7.86706 12.7331 7.86706L12.5331 5.33372C12.5331 5.33372 12.1331 5.46706 11.5997 5.46706C10.8664 5.46706 10.0664 5.06706 10.0664 5.06706ZM12.3331 2.60039L12.5331 5.33372C12.5331 5.33372 13.5331 5.06706 14.6664 4.20039V1.40039C13.3997 2.40039 12.3331 2.60039 12.3331 2.60039ZM12.7331 7.86706C12.7331 7.86706 13.7331 7.66706 14.6664 7.13372V10.1337C13.6664 10.6004 12.9331 10.7337 12.9331 10.7337L12.7331 7.86706Z" fill="white"/>
</g>
<defs>
<clipPath id="clip0_18_41039">
<rect width="16" height="16" fill="white"/>
</clipPath>
</defs>
</svg>
